solid Exported from Blender-2.93.0
facet normal -1.000000 0.000000 0.000000
outer loop
vertex 2.000000 11.405000 4.500000
vertex 2.000000 14.540000 3.375000
vertex 2.000000 11.405000 3.375000
endloop
endfacet
facet normal 0.000000 1.000000 0.000000
outer loop
vertex 22.160000 14.540000 4.500000
vertex 25.040001 14.540000 3.375000
vertex 22.160000 14.540000 3.375000
endloop
endfacet
facet normal 1.000000 0.000000 0.000000
outer loop
vertex 25.040001 5.135000 4.500000
vertex 25.040001 2.000000 3.375000
vertex 25.040001 5.135000 3.375000
endloop
endfacet
facet normal 0.000000 -1.000000 0.000000
outer loop
vertex 4.880000 2.000000 4.500000
vertex 2.000000 2.000000 3.375000
vertex 4.880000 2.000000 3.375000
endloop
endfacet
facet normal 0.000000 0.000000 1.000000
outer loop
vertex 2.000000 5.135000 4.500000
vertex 4.880000 2.000000 4.500000
vertex 4.880000 5.135000 4.500000
endloop
endfacet
facet normal 0.000000 0.000000 1.000000
outer loop
vertex 13.520000 5.135000 4.500000
vertex 16.400002 2.000000 4.500000
vertex 16.400002 5.135000 4.500000
endloop
endfacet
facet normal 0.000000 -1.000000 0.000000
outer loop
vertex 16.400002 2.000000 4.500000
vertex 13.520000 2.000000 3.375000
vertex 16.400002 2.000000 3.375000
endloop
endfacet
facet normal 0.000000 1.000000 0.000000
outer loop
vertex 10.640000 14.540000 4.500000
vertex 13.520000 14.540000 3.375000
vertex 10.640000 14.540000 3.375000
endloop
endfacet
facet normal 0.000000 1.000000 0.000000
outer loop
vertex 4.880000 14.540000 4.500000
vertex 7.760000 14.540000 3.375000
vertex 4.880000 14.540000 3.375000
endloop
endfacet
facet normal 0.000000 0.000000 1.000000
outer loop
vertex 7.760000 5.135000 4.500000
vertex 10.640000 2.000000 4.500000
vertex 10.640000 5.135000 4.500000
endloop
endfacet
facet normal 0.000000 -1.000000 0.000000
outer loop
vertex 10.640000 2.000000 4.500000
vertex 7.760000 2.000000 3.375000
vertex 10.640000 2.000000 3.375000
endloop
endfacet
facet normal 0.000000 -1.000000 0.000000
outer loop
vertex 22.160000 2.000000 4.500000
vertex 19.280001 2.000000 3.375000
vertex 22.160000 2.000000 3.375000
endloop
endfacet
facet normal 0.000000 0.000000 1.000000
outer loop
vertex 19.280001 5.135000 4.500000
vertex 22.160000 2.000000 4.500000
vertex 22.160000 5.135000 4.500000
endloop
endfacet
facet normal 0.000000 1.000000 0.000000
outer loop
vertex 16.400002 14.540000 4.500000
vertex 19.280001 14.540000 3.375000
vertex 16.400002 14.540000 3.375000
endloop
endfacet
facet normal 0.000000 1.000000 0.000000
outer loop
vertex 16.400002 14.540000 2.250000
vertex 19.280001 14.540000 1.125000
vertex 16.400002 14.540000 1.125000
endloop
endfacet
facet normal 0.000000 -1.000000 0.000000
outer loop
vertex 22.160000 2.000000 2.250000
vertex 19.280001 2.000000 1.125000
vertex 22.160000 2.000000 1.125000
endloop
endfacet
facet normal 0.000000 -1.000000 0.000000
outer loop
vertex 10.640000 2.000000 2.250000
vertex 7.760000 2.000000 1.125000
vertex 10.640000 2.000000 1.125000
endloop
endfacet
facet normal 0.000000 1.000000 0.000000
outer loop
vertex 4.880000 14.540000 2.250000
vertex 7.760000 14.540000 1.125000
vertex 4.880000 14.540000 1.125000
endloop
endfacet
facet normal 0.000000 1.000000 0.000000
outer loop
vertex 10.640000 14.540000 2.250000
vertex 13.520000 14.540000 1.125000
vertex 10.640000 14.540000 1.125000
endloop
endfacet
facet normal 0.000000 -1.000000 0.000000
outer loop
vertex 16.400002 2.000000 2.250000
vertex 13.520000 2.000000 1.125000
vertex 16.400002 2.000000 1.125000
endloop
endfacet
facet normal 0.000000 -1.000000 0.000000
outer loop
vertex 4.880000 2.000000 2.250000
vertex 2.000000 2.000000 1.125000
vertex 4.880000 2.000000 1.125000
endloop
endfacet
facet normal 1.000000 0.000000 0.000000
outer loop
vertex 25.040001 5.135000 2.250000
vertex 25.040001 2.000000 1.125000
vertex 25.040001 5.135000 1.125000
endloop
endfacet
facet normal 0.000000 1.000000 0.000000
outer loop
vertex 22.160000 14.540000 2.250000
vertex 25.040001 14.540000 1.125000
vertex 22.160000 14.540000 1.125000
endloop
endfacet
facet normal -1.000000 0.000000 0.000000
outer loop
vertex 2.000000 11.405000 2.250000
vertex 2.000000 14.540000 1.125000
vertex 2.000000 11.405000 1.125000
endloop
endfacet
facet normal 0.000000 1.000000 0.000000
outer loop
vertex 16.400002 14.540000 3.375000
vertex 19.280001 14.540000 2.250000
vertex 16.400002 14.540000 2.250000
endloop
endfacet
facet normal 0.000000 -1.000000 0.000000
outer loop
vertex 22.160000 2.000000 3.375000
vertex 19.280001 2.000000 2.250000
vertex 22.160000 2.000000 2.250000
endloop
endfacet
facet normal 0.000000 -1.000000 0.000000
outer loop
vertex 10.640000 2.000000 3.375000
vertex 7.760000 2.000000 2.250000
vertex 10.640000 2.000000 2.250000
endloop
endfacet
facet normal 0.000000 1.000000 0.000000
outer loop
vertex 4.880000 14.540000 3.375000
vertex 7.760000 14.540000 2.250000
vertex 4.880000 14.540000 2.250000
endloop
endfacet
facet normal 0.000000 1.000000 0.000000
outer loop
vertex 10.640000 14.540000 3.375000
vertex 13.520000 14.540000 2.250000
vertex 10.640000 14.540000 2.250000
endloop
endfacet
facet normal 0.000000 -1.000000 0.000000
outer loop
vertex 16.400002 2.000000 3.375000
vertex 13.520000 2.000000 2.250000
vertex 16.400002 2.000000 2.250000
endloop
endfacet
facet normal 0.000000 -1.000000 0.000000
outer loop
vertex 4.880000 2.000000 3.375000
vertex 2.000000 2.000000 2.250000
vertex 4.880000 2.000000 2.250000
endloop
endfacet
facet normal 1.000000 0.000000 0.000000
outer loop
vertex 25.040001 5.135000 3.375000
vertex 25.040001 2.000000 2.250000
vertex 25.040001 5.135000 2.250000
endloop
endfacet
facet normal 0.000000 1.000000 0.000000
outer loop
vertex 22.160000 14.540000 3.375000
vertex 25.040001 14.540000 2.250000
vertex 22.160000 14.540000 2.250000
endloop
endfacet
facet normal -1.000000 0.000000 0.000000
outer loop
vertex 2.000000 11.405000 3.375000
vertex 2.000000 14.540000 2.250000
vertex 2.000000 11.405000 2.250000
endloop
endfacet
facet normal -1.000000 0.000000 0.000000
outer loop
vertex 2.000000 11.405000 1.125000
vertex 2.000000 14.540000 0.000000
vertex 2.000000 11.405000 0.000000
endloop
endfacet
facet normal 0.000000 1.000000 0.000000
outer loop
vertex 22.160000 14.540000 1.125000
vertex 25.040001 14.540000 0.000000
vertex 22.160000 14.540000 0.000000
endloop
endfacet
facet normal 1.000000 0.000000 0.000000
outer loop
vertex 25.040001 5.135000 1.125000
vertex 25.040001 2.000000 0.000000
vertex 25.040001 5.135000 0.000000
endloop
endfacet
facet normal 0.000000 -1.000000 0.000000
outer loop
vertex 4.880000 2.000000 1.125000
vertex 2.000000 2.000000 0.000000
vertex 4.880000 2.000000 0.000000
endloop
endfacet
facet normal 0.000000 -1.000000 0.000000
outer loop
vertex 16.400002 2.000000 1.125000
vertex 13.520000 2.000000 0.000000
vertex 16.400002 2.000000 0.000000
endloop
endfacet
facet normal 0.000000 1.000000 0.000000
outer loop
vertex 10.640000 14.540000 1.125000
vertex 13.520000 14.540000 0.000000
vertex 10.640000 14.540000 0.000000
endloop
endfacet
facet normal 0.000000 1.000000 0.000000
outer loop
vertex 4.880000 14.540000 1.125000
vertex 7.760000 14.540000 0.000000
vertex 4.880000 14.540000 0.000000
endloop
endfacet
facet normal 0.000000 -1.000000 0.000000
outer loop
vertex 10.640000 2.000000 1.125000
vertex 7.760000 2.000000 0.000000
vertex 10.640000 2.000000 0.000000
endloop
endfacet
facet normal 0.000000 -1.000000 0.000000
outer loop
vertex 22.160000 2.000000 1.125000
vertex 19.280001 2.000000 0.000000
vertex 22.160000 2.000000 0.000000
endloop
endfacet
facet normal 0.000000 1.000000 0.000000
outer loop
vertex 16.400002 14.540000 1.125000
vertex 19.280001 14.540000 0.000000
vertex 16.400002 14.540000 0.000000
endloop
endfacet
facet normal 0.000000 1.000000 0.000000
outer loop
vertex 2.000000 14.540000 1.125000
vertex 4.880000 14.540000 0.000000
vertex 2.000000 14.540000 0.000000
endloop
endfacet
facet normal 0.000000 -1.000000 0.000000
outer loop
vertex 7.760000 2.000000 1.125000
vertex 4.880000 2.000000 0.000000
vertex 7.760000 2.000000 0.000000
endloop
endfacet
facet normal 0.000000 -1.000000 0.000000
outer loop
vertex 7.760000 2.000000 3.375000
vertex 4.880000 2.000000 2.250000
vertex 7.760000 2.000000 2.250000
endloop
endfacet
facet normal 0.000000 1.000000 0.000000
outer loop
vertex 2.000000 14.540000 3.375000
vertex 4.880000 14.540000 2.250000
vertex 2.000000 14.540000 2.250000
endloop
endfacet
facet normal 0.000000 -1.000000 0.000000
outer loop
vertex 7.760000 2.000000 2.250000
vertex 4.880000 2.000000 1.125000
vertex 7.760000 2.000000 1.125000
endloop
endfacet
facet normal 0.000000 1.000000 0.000000
outer loop
vertex 2.000000 14.540000 2.250000
vertex 4.880000 14.540000 1.125000
vertex 2.000000 14.540000 1.125000
endloop
endfacet
facet normal 0.000000 1.000000 0.000000
outer loop
vertex 2.000000 14.540000 4.500000
vertex 4.880000 14.540000 3.375000
vertex 2.000000 14.540000 3.375000
endloop
endfacet
facet normal 0.000000 0.000000 1.000000
outer loop
vertex 4.880000 5.135000 4.500000
vertex 7.760000 2.000000 4.500000
vertex 7.760000 5.135000 4.500000
endloop
endfacet
facet normal 0.000000 -1.000000 0.000000
outer loop
vertex 7.760000 2.000000 4.500000
vertex 4.880000 2.000000 3.375000
vertex 7.760000 2.000000 3.375000
endloop
endfacet
facet normal 0.000000 -1.000000 0.000000
outer loop
vertex 13.520000 2.000000 1.125000
vertex 10.640000 2.000000 0.000000
vertex 13.520000 2.000000 0.000000
endloop
endfacet
facet normal 0.000000 1.000000 0.000000
outer loop
vertex 7.760000 14.540000 1.125000
vertex 10.640000 14.540000 0.000000
vertex 7.760000 14.540000 0.000000
endloop
endfacet
facet normal 0.000000 1.000000 0.000000
outer loop
vertex 7.760000 14.540000 3.375000
vertex 10.640000 14.540000 2.250000
vertex 7.760000 14.540000 2.250000
endloop
endfacet
facet normal 0.000000 -1.000000 0.000000
outer loop
vertex 13.520000 2.000000 3.375000
vertex 10.640000 2.000000 2.250000
vertex 13.520000 2.000000 2.250000
endloop
endfacet
facet normal 0.000000 1.000000 0.000000
outer loop
vertex 7.760000 14.540000 2.250000
vertex 10.640000 14.540000 1.125000
vertex 7.760000 14.540000 1.125000
endloop
endfacet
facet normal 0.000000 -1.000000 0.000000
outer loop
vertex 13.520000 2.000000 2.250000
vertex 10.640000 2.000000 1.125000
vertex 13.520000 2.000000 1.125000
endloop
endfacet
facet normal 0.000000 -1.000000 0.000000
outer loop
vertex 13.520000 2.000000 4.500000
vertex 10.640000 2.000000 3.375000
vertex 13.520000 2.000000 3.375000
endloop
endfacet
facet normal 0.000000 0.000000 1.000000
outer loop
vertex 10.640000 5.135000 4.500000
vertex 13.520000 2.000000 4.500000
vertex 13.520000 5.135000 4.500000
endloop
endfacet
facet normal 0.000000 1.000000 0.000000
outer loop
vertex 7.760000 14.540000 4.500000
vertex 10.640000 14.540000 3.375000
vertex 7.760000 14.540000 3.375000
endloop
endfacet
facet normal 0.000000 1.000000 0.000000
outer loop
vertex 13.520000 14.540000 1.125000
vertex 16.400002 14.540000 0.000000
vertex 13.520000 14.540000 0.000000
endloop
endfacet
facet normal 0.000000 -1.000000 0.000000
outer loop
vertex 19.280001 2.000000 1.125000
vertex 16.400002 2.000000 0.000000
vertex 19.280001 2.000000 0.000000
endloop
endfacet
facet normal 0.000000 -1.000000 0.000000
outer loop
vertex 19.280001 2.000000 3.375000
vertex 16.400002 2.000000 2.250000
vertex 19.280001 2.000000 2.250000
endloop
endfacet
facet normal 0.000000 1.000000 0.000000
outer loop
vertex 13.520000 14.540000 3.375000
vertex 16.400002 14.540000 2.250000
vertex 13.520000 14.540000 2.250000
endloop
endfacet
facet normal 0.000000 -1.000000 0.000000
outer loop
vertex 19.280001 2.000000 2.250000
vertex 16.400002 2.000000 1.125000
vertex 19.280001 2.000000 1.125000
endloop
endfacet
facet normal 0.000000 1.000000 0.000000
outer loop
vertex 13.520000 14.540000 2.250000
vertex 16.400002 14.540000 1.125000
vertex 13.520000 14.540000 1.125000
endloop
endfacet
facet normal 0.000000 1.000000 0.000000
outer loop
vertex 13.520000 14.540000 4.500000
vertex 16.400002 14.540000 3.375000
vertex 13.520000 14.540000 3.375000
endloop
endfacet
facet normal 0.000000 -1.000000 0.000000
outer loop
vertex 19.280001 2.000000 4.500000
vertex 16.400002 2.000000 3.375000
vertex 19.280001 2.000000 3.375000
endloop
endfacet
facet normal 0.000000 0.000000 1.000000
outer loop
vertex 16.400002 5.135000 4.500000
vertex 19.280001 2.000000 4.500000
vertex 19.280001 5.135000 4.500000
endloop
endfacet
facet normal 0.000000 -1.000000 0.000000
outer loop
vertex 25.040001 2.000000 1.125000
vertex 22.160000 2.000000 0.000000
vertex 25.040001 2.000000 0.000000
endloop
endfacet
facet normal 0.000000 1.000000 0.000000
outer loop
vertex 19.280001 14.540000 1.125000
vertex 22.160000 14.540000 0.000000
vertex 19.280001 14.540000 0.000000
endloop
endfacet
facet normal 0.000000 1.000000 0.000000
outer loop
vertex 19.280001 14.540000 3.375000
vertex 22.160000 14.540000 2.250000
vertex 19.280001 14.540000 2.250000
endloop
endfacet
facet normal 0.000000 -1.000000 0.000000
outer loop
vertex 25.040001 2.000000 3.375000
vertex 22.160000 2.000000 2.250000
vertex 25.040001 2.000000 2.250000
endloop
endfacet
facet normal 0.000000 1.000000 0.000000
outer loop
vertex 19.280001 14.540000 2.250000
vertex 22.160000 14.540000 1.125000
vertex 19.280001 14.540000 1.125000
endloop
endfacet
facet normal 0.000000 -1.000000 0.000000
outer loop
vertex 25.040001 2.000000 2.250000
vertex 22.160000 2.000000 1.125000
vertex 25.040001 2.000000 1.125000
endloop
endfacet
facet normal 0.000000 0.000000 1.000000
outer loop
vertex 22.160000 5.135000 4.500000
vertex 25.040001 2.000000 4.500000
vertex 25.040001 5.135000 4.500000
endloop
endfacet
facet normal 0.000000 -1.000000 0.000000
outer loop
vertex 25.040001 2.000000 4.500000
vertex 22.160000 2.000000 3.375000
vertex 25.040001 2.000000 3.375000
endloop
endfacet
facet normal 0.000000 1.000000 0.000000
outer loop
vertex 19.280001 14.540000 4.500000
vertex 22.160000 14.540000 3.375000
vertex 19.280001 14.540000 3.375000
endloop
endfacet
facet normal 1.000000 0.000000 0.000000
outer loop
vertex 25.040001 11.405000 1.125000
vertex 25.040001 8.270000 0.000000
vertex 25.040001 11.405000 0.000000
endloop
endfacet
facet normal -1.000000 0.000000 0.000000
outer loop
vertex 2.000000 5.135000 1.125000
vertex 2.000000 8.270000 0.000000
vertex 2.000000 5.135000 0.000000
endloop
endfacet
facet normal -1.000000 0.000000 0.000000
outer loop
vertex 2.000000 5.135000 3.375000
vertex 2.000000 8.270000 2.250000
vertex 2.000000 5.135000 2.250000
endloop
endfacet
facet normal 1.000000 0.000000 0.000000
outer loop
vertex 25.040001 11.405000 3.375000
vertex 25.040001 8.270000 2.250000
vertex 25.040001 11.405000 2.250000
endloop
endfacet
facet normal -1.000000 0.000000 0.000000
outer loop
vertex 2.000000 5.135000 2.250000
vertex 2.000000 8.270000 1.125000
vertex 2.000000 5.135000 1.125000
endloop
endfacet
facet normal 1.000000 0.000000 0.000000
outer loop
vertex 25.040001 11.405000 2.250000
vertex 25.040001 8.270000 1.125000
vertex 25.040001 11.405000 1.125000
endloop
endfacet
facet normal 1.000000 0.000000 0.000000
outer loop
vertex 25.040001 11.405000 4.500000
vertex 25.040001 8.270000 3.375000
vertex 25.040001 11.405000 3.375000
endloop
endfacet
facet normal -1.000000 0.000000 0.000000
outer loop
vertex 2.000000 5.135000 4.500000
vertex 2.000000 8.270000 3.375000
vertex 2.000000 5.135000 3.375000
endloop
endfacet
facet normal -1.000000 0.000000 0.000000
outer loop
vertex 2.000000 2.000000 4.500000
vertex 2.000000 5.135000 3.375000
vertex 2.000000 2.000000 3.375000
endloop
endfacet
facet normal -1.000000 0.000000 0.000000
outer loop
vertex 2.000000 2.000000 2.250000
vertex 2.000000 5.135000 1.125000
vertex 2.000000 2.000000 1.125000
endloop
endfacet
facet normal -1.000000 0.000000 0.000000
outer loop
vertex 2.000000 2.000000 3.375000
vertex 2.000000 5.135000 2.250000
vertex 2.000000 2.000000 2.250000
endloop
endfacet
facet normal -1.000000 0.000000 0.000000
outer loop
vertex 2.000000 2.000000 1.125000
vertex 2.000000 5.135000 0.000000
vertex 2.000000 2.000000 0.000000
endloop
endfacet
facet normal 0.000000 0.000000 0.000000
outer loop
vertex 25.040001 11.405000 4.500000
vertex 22.160000 11.405000 4.500000
vertex 19.280001 11.405000 4.500000
endloop
endfacet
facet normal 0.000000 0.000000 1.000000
outer loop
vertex 25.040001 11.405000 4.500000
vertex 19.280001 11.405000 4.500000
vertex 22.160004 8.270003 4.500000
endloop
endfacet
facet normal 0.000000 0.000000 0.000000
outer loop
vertex 19.280001 11.405000 4.500000
vertex 16.400002 11.405000 4.500000
vertex 13.520000 11.405000 4.500000
endloop
endfacet
facet normal 0.000000 0.000000 1.000000
outer loop
vertex 19.280001 11.405000 4.500000
vertex 13.520000 11.405000 4.500000
vertex 16.400002 8.270000 4.500000
endloop
endfacet
facet normal 0.000000 0.000000 0.000000
outer loop
vertex 13.520000 11.405000 4.500000
vertex 10.640000 11.405000 4.500000
vertex 7.760000 11.405000 4.500000
endloop
endfacet
facet normal 0.000000 0.000000 1.000000
outer loop
vertex 13.520000 11.405000 4.500000
vertex 7.760000 11.405000 4.500000
vertex 10.640002 8.270001 4.500000
endloop
endfacet
facet normal 1.000000 0.000000 0.000000
outer loop
vertex 25.040001 8.270000 1.125000
vertex 25.040001 5.135000 0.000000
vertex 25.040001 8.270000 0.000000
endloop
endfacet
facet normal 1.000000 0.000000 0.000000
outer loop
vertex 25.040001 8.270000 3.375000
vertex 25.040001 5.135000 2.250000
vertex 25.040001 8.270000 2.250000
endloop
endfacet
facet normal 1.000000 0.000000 0.000000
outer loop
vertex 25.040001 8.270000 2.250000
vertex 25.040001 5.135000 1.125000
vertex 25.040001 8.270000 1.125000
endloop
endfacet
facet normal 1.000000 0.000000 0.000000
outer loop
vertex 25.040001 8.270000 4.500000
vertex 25.040001 5.135000 3.375000
vertex 25.040001 8.270000 3.375000
endloop
endfacet
facet normal 1.000000 0.000000 0.000000
outer loop
vertex 25.040001 14.540000 4.500000
vertex 25.040001 11.405000 3.375000
vertex 25.040001 14.540000 3.375000
endloop
endfacet
facet normal 0.000000 0.000000 1.000000
outer loop
vertex 2.000000 14.540000 4.500000
vertex 4.880000 11.405000 4.500000
vertex 4.880000 14.540000 4.500000
endloop
endfacet
facet normal 0.000000 0.000000 1.000000
outer loop
vertex 13.520000 14.540000 4.500000
vertex 16.400002 11.405000 4.500000
vertex 16.400002 14.540000 4.500000
endloop
endfacet
facet normal 0.000000 0.000000 1.000000
outer loop
vertex 7.760000 14.540000 4.500000
vertex 10.640000 11.405000 4.500000
vertex 10.640000 14.540000 4.500000
endloop
endfacet
facet normal 0.000000 0.000000 1.000000
outer loop
vertex 19.280001 14.540000 4.500000
vertex 22.160000 11.405000 4.500000
vertex 22.160000 14.540000 4.500000
endloop
endfacet
facet normal 1.000000 0.000000 0.000000
outer loop
vertex 25.040001 14.540000 2.250000
vertex 25.040001 11.405000 1.125000
vertex 25.040001 14.540000 1.125000
endloop
endfacet
facet normal 1.000000 0.000000 0.000000
outer loop
vertex 25.040001 14.540000 3.375000
vertex 25.040001 11.405000 2.250000
vertex 25.040001 14.540000 2.250000
endloop
endfacet
facet normal 1.000000 0.000000 0.000000
outer loop
vertex 25.040001 14.540000 1.125000
vertex 25.040001 11.405000 0.000000
vertex 25.040001 14.540000 0.000000
endloop
endfacet
facet normal 0.000000 0.000000 0.000000
outer loop
vertex 7.760000 11.405000 4.500000
vertex 4.880000 11.405000 4.500000
vertex 2.000000 11.405000 4.500000
endloop
endfacet
facet normal 0.000000 0.000000 1.000000
outer loop
vertex 7.760000 11.405000 4.500000
vertex 2.000000 11.405000 4.500000
vertex 4.880000 8.270000 4.500000
endloop
endfacet
facet normal 0.000000 0.000000 1.000000
outer loop
vertex 4.880000 14.540000 4.500000
vertex 7.760000 11.405000 4.500000
vertex 7.760000 14.540000 4.500000
endloop
endfacet
facet normal 0.000000 0.000000 1.000000
outer loop
vertex 10.640000 14.540000 4.500000
vertex 13.520000 11.405000 4.500000
vertex 13.520000 14.540000 4.500000
endloop
endfacet
facet normal 0.000000 0.000000 1.000000
outer loop
vertex 16.400002 14.540000 4.500000
vertex 19.280001 11.405000 4.500000
vertex 19.280001 14.540000 4.500000
endloop
endfacet
facet normal 0.000000 0.000000 1.000000
outer loop
vertex 22.160000 14.540000 4.500000
vertex 25.040001 11.405000 4.500000
vertex 25.040001 14.540000 4.500000
endloop
endfacet
facet normal -1.000000 0.000000 0.000000
outer loop
vertex 2.000000 8.270000 1.125000
vertex 2.000000 11.405000 0.000000
vertex 2.000000 8.270000 0.000000
endloop
endfacet
facet normal -1.000000 0.000000 0.000000
outer loop
vertex 2.000000 8.270000 3.375000
vertex 2.000000 11.405000 2.250000
vertex 2.000000 8.270000 2.250000
endloop
endfacet
facet normal -1.000000 0.000000 0.000000
outer loop
vertex 2.000000 8.270000 2.250000
vertex 2.000000 11.405000 1.125000
vertex 2.000000 8.270000 1.125000
endloop
endfacet
facet normal -1.000000 0.000000 0.000000
outer loop
vertex 2.000000 8.270000 4.500000
vertex 2.000000 11.405000 3.375000
vertex 2.000000 8.270000 3.375000
endloop
endfacet
facet normal 0.000000 0.000000 1.000000
outer loop
vertex 2.000000 14.540000 4.500000
vertex 2.000000 11.405000 4.500000
vertex 4.880000 11.405000 4.500000
endloop
endfacet
facet normal 0.000000 0.000000 0.000000
outer loop
vertex 7.760000 5.135000 4.500000
vertex 10.640000 5.135000 4.500000
vertex 13.520000 5.135000 4.500000
endloop
endfacet
facet normal 0.000000 0.000000 1.000000
outer loop
vertex 7.760000 5.135000 4.500000
vertex 13.520000 5.135000 4.500000
vertex 10.640002 8.270001 4.500000
endloop
endfacet
facet normal 0.000000 0.000000 0.000000
outer loop
vertex 19.280001 5.135000 4.500000
vertex 22.160000 5.135000 4.500000
vertex 25.040001 5.135000 4.500000
endloop
endfacet
facet normal 0.000000 0.000000 1.000000
outer loop
vertex 19.280001 5.135000 4.500000
vertex 25.040001 5.135000 4.500000
vertex 22.160004 8.270003 4.500000
endloop
endfacet
facet normal 0.000000 0.000000 1.000000
outer loop
vertex 19.280001 5.135000 4.500000
vertex 16.400002 8.270000 4.500000
vertex 13.520000 5.135000 4.500000
endloop
endfacet
facet normal 0.000000 0.000000 0.000000
outer loop
vertex 19.280001 5.135000 4.500000
vertex 13.520000 5.135000 4.500000
vertex 16.400002 5.135000 4.500000
endloop
endfacet
facet normal 0.000000 0.000000 1.000000
outer loop
vertex 7.760000 5.135000 4.500000
vertex 4.880000 8.270000 4.500000
vertex 2.000000 5.135000 4.500000
endloop
endfacet
facet normal 0.000000 0.000000 0.000000
outer loop
vertex 7.760000 5.135000 4.500000
vertex 2.000000 5.135000 4.500000
vertex 4.880000 5.135000 4.500000
endloop
endfacet
facet normal 0.000000 0.000000 1.000000
outer loop
vertex 2.000000 5.135000 4.500000
vertex 4.880000 8.270000 4.500000
vertex 2.000000 11.405000 4.500000
endloop
endfacet
facet normal -1.000000 0.000000 0.000000
outer loop
vertex 2.000000 5.135000 4.500000
vertex 2.000000 11.405000 4.500000
vertex 2.000000 8.270000 4.500000
endloop
endfacet
facet normal 0.000000 0.000000 1.000000
outer loop
vertex 10.640002 8.270001 4.500000
vertex 7.760000 11.405000 4.500000
vertex 7.760000 8.270000 4.500000
endloop
endfacet
facet normal -0.000000 0.000000 1.000000
outer loop
vertex 10.640002 8.270001 4.500000
vertex 7.760000 8.270000 4.500000
vertex 7.760000 5.135000 4.500000
endloop
endfacet
facet normal 0.000000 0.000000 1.000000
outer loop
vertex 10.640002 8.270001 4.500000
vertex 13.520000 5.135000 4.500000
vertex 13.520000 8.270000 4.500000
endloop
endfacet
facet normal 0.000000 0.000000 1.000000
outer loop
vertex 10.640002 8.270001 4.500000
vertex 13.520000 8.270000 4.500000
vertex 13.520000 11.405000 4.500000
endloop
endfacet
facet normal -0.000000 0.000000 1.000000
outer loop
vertex 22.160004 8.270003 4.500000
vertex 25.040001 5.135000 4.500000
vertex 25.040001 8.270000 4.500000
endloop
endfacet
facet normal 0.000000 0.000000 1.000000
outer loop
vertex 22.160004 8.270003 4.500000
vertex 25.040001 8.270000 4.500000
vertex 25.040001 11.405000 4.500000
endloop
endfacet
facet normal 0.000000 0.000000 1.000000
outer loop
vertex 22.160004 8.270003 4.500000
vertex 19.280001 11.405000 4.500000
vertex 19.280001 8.270000 4.500000
endloop
endfacet
facet normal 0.000000 0.000000 1.000000
outer loop
vertex 22.160004 8.270003 4.500000
vertex 19.280001 8.270000 4.500000
vertex 19.280001 5.135000 4.500000
endloop
endfacet
facet normal 0.000000 0.000000 1.000000
outer loop
vertex 13.520000 5.135000 4.500000
vertex 16.400002 8.270000 4.500000
vertex 13.520000 11.405000 4.500000
endloop
endfacet
facet normal -1.000000 0.000000 0.000000
outer loop
vertex 13.520000 5.135000 4.500000
vertex 13.520000 11.405000 4.500000
vertex 13.520000 8.270000 4.500000
endloop
endfacet
facet normal -0.000000 0.000000 1.000000
outer loop
vertex 16.400002 8.270000 4.500000
vertex 19.280001 5.135000 4.500000
vertex 19.280001 8.270000 4.500000
endloop
endfacet
facet normal 0.000000 0.000000 1.000000
outer loop
vertex 16.400002 8.270000 4.500000
vertex 19.280001 8.270000 4.500000
vertex 19.280001 11.405000 4.500000
endloop
endfacet
facet normal 0.000000 0.000000 1.000000
outer loop
vertex 4.880000 8.270000 4.500000
vertex 7.760000 5.135000 4.500000
vertex 7.760000 8.270000 4.500000
endloop
endfacet
facet normal 0.000000 0.000000 1.000000
outer loop
vertex 4.880000 8.270000 4.500000
vertex 7.760000 8.270000 4.500000
vertex 7.760000 11.405000 4.500000
endloop
endfacet
facet normal 0.000000 0.000000 1.000000
outer loop
vertex 13.520000 14.540000 4.500000
vertex 13.520000 11.405000 4.500000
vertex 16.400002 11.405000 4.500000
endloop
endfacet
facet normal 0.000000 0.000000 1.000000
outer loop
vertex 7.760000 14.540000 4.500000
vertex 7.760000 11.405000 4.500000
vertex 10.640000 11.405000 4.500000
endloop
endfacet
facet normal 0.000000 0.000000 1.000000
outer loop
vertex 19.280001 14.540000 4.500000
vertex 19.280001 11.405000 4.500000
vertex 22.160000 11.405000 4.500000
endloop
endfacet
facet normal 0.000000 0.000000 1.000000
outer loop
vertex 4.880000 14.540000 4.500000
vertex 4.880000 11.405000 4.500000
vertex 7.760000 11.405000 4.500000
endloop
endfacet
facet normal 0.000000 0.000000 1.000000
outer loop
vertex 10.640000 14.540000 4.500000
vertex 10.640000 11.405000 4.500000
vertex 13.520000 11.405000 4.500000
endloop
endfacet
facet normal 0.000000 0.000000 1.000000
outer loop
vertex 16.400002 14.540000 4.500000
vertex 16.400002 11.405000 4.500000
vertex 19.280001 11.405000 4.500000
endloop
endfacet
facet normal 0.000000 0.000000 1.000000
outer loop
vertex 22.160000 14.540000 4.500000
vertex 22.160000 11.405000 4.500000
vertex 25.040001 11.405000 4.500000
endloop
endfacet
facet normal 0.000000 0.000000 1.000000
outer loop
vertex 2.000000 5.135000 4.500000
vertex 2.000000 2.000000 4.500000
vertex 4.880000 2.000000 4.500000
endloop
endfacet
facet normal 0.000000 0.000000 1.000000
outer loop
vertex 13.520000 5.135000 4.500000
vertex 13.520000 2.000000 4.500000
vertex 16.400002 2.000000 4.500000
endloop
endfacet
facet normal 0.000000 0.000000 1.000000
outer loop
vertex 7.760000 5.135000 4.500000
vertex 7.760000 2.000000 4.500000
vertex 10.640000 2.000000 4.500000
endloop
endfacet
facet normal 0.000000 0.000000 1.000000
outer loop
vertex 19.280001 5.135000 4.500000
vertex 19.280001 2.000000 4.500000
vertex 22.160000 2.000000 4.500000
endloop
endfacet
facet normal 0.000000 0.000000 1.000000
outer loop
vertex 4.880000 5.135000 4.500000
vertex 4.880000 2.000000 4.500000
vertex 7.760000 2.000000 4.500000
endloop
endfacet
facet normal 0.000000 0.000000 1.000000
outer loop
vertex 10.640000 5.135000 4.500000
vertex 10.640000 2.000000 4.500000
vertex 13.520000 2.000000 4.500000
endloop
endfacet
facet normal 0.000000 0.000000 1.000000
outer loop
vertex 16.400002 5.135000 4.500000
vertex 16.400002 2.000000 4.500000
vertex 19.280001 2.000000 4.500000
endloop
endfacet
facet normal 0.000000 0.000000 1.000000
outer loop
vertex 22.160000 5.135000 4.500000
vertex 22.160000 2.000000 4.500000
vertex 25.040001 2.000000 4.500000
endloop
endfacet
facet normal 1.000000 0.000000 0.000000
outer loop
vertex 25.040001 5.135000 4.500000
vertex 25.040001 2.000000 4.500000
vertex 25.040001 2.000000 3.375000
endloop
endfacet
facet normal 1.000000 0.000000 0.000000
outer loop
vertex 25.040001 5.135000 2.250000
vertex 25.040001 2.000000 2.250000
vertex 25.040001 2.000000 1.125000
endloop
endfacet
facet normal 1.000000 0.000000 0.000000
outer loop
vertex 25.040001 5.135000 3.375000
vertex 25.040001 2.000000 3.375000
vertex 25.040001 2.000000 2.250000
endloop
endfacet
facet normal 1.000000 0.000000 0.000000
outer loop
vertex 25.040001 5.135000 1.125000
vertex 25.040001 2.000000 1.125000
vertex 25.040001 2.000000 0.000000
endloop
endfacet
facet normal 1.000000 0.000000 0.000000
outer loop
vertex 25.040001 11.405000 1.125000
vertex 25.040001 8.270000 1.125000
vertex 25.040001 8.270000 0.000000
endloop
endfacet
facet normal 1.000000 0.000000 0.000000
outer loop
vertex 25.040001 11.405000 3.375000
vertex 25.040001 8.270000 3.375000
vertex 25.040001 8.270000 2.250000
endloop
endfacet
facet normal 1.000000 0.000000 0.000000
outer loop
vertex 25.040001 11.405000 2.250000
vertex 25.040001 8.270000 2.250000
vertex 25.040001 8.270000 1.125000
endloop
endfacet
facet normal 1.000000 0.000000 0.000000
outer loop
vertex 25.040001 11.405000 4.500000
vertex 25.040001 8.270000 4.500000
vertex 25.040001 8.270000 3.375000
endloop
endfacet
facet normal 1.000000 0.000000 0.000000
outer loop
vertex 25.040001 8.270000 1.125000
vertex 25.040001 5.135000 1.125000
vertex 25.040001 5.135000 0.000000
endloop
endfacet
facet normal 1.000000 0.000000 0.000000
outer loop
vertex 25.040001 8.270000 3.375000
vertex 25.040001 5.135000 3.375000
vertex 25.040001 5.135000 2.250000
endloop
endfacet
facet normal 1.000000 0.000000 0.000000
outer loop
vertex 25.040001 8.270000 2.250000
vertex 25.040001 5.135000 2.250000
vertex 25.040001 5.135000 1.125000
endloop
endfacet
facet normal 1.000000 0.000000 0.000000
outer loop
vertex 25.040001 8.270000 4.500000
vertex 25.040001 5.135000 4.500000
vertex 25.040001 5.135000 3.375000
endloop
endfacet
facet normal 1.000000 0.000000 0.000000
outer loop
vertex 25.040001 14.540000 4.500000
vertex 25.040001 11.405000 4.500000
vertex 25.040001 11.405000 3.375000
endloop
endfacet
facet normal 1.000000 0.000000 0.000000
outer loop
vertex 25.040001 14.540000 2.250000
vertex 25.040001 11.405000 2.250000
vertex 25.040001 11.405000 1.125000
endloop
endfacet
facet normal 1.000000 0.000000 0.000000
outer loop
vertex 25.040001 14.540000 3.375000
vertex 25.040001 11.405000 3.375000
vertex 25.040001 11.405000 2.250000
endloop
endfacet
facet normal 1.000000 0.000000 0.000000
outer loop
vertex 25.040001 14.540000 1.125000
vertex 25.040001 11.405000 1.125000
vertex 25.040001 11.405000 0.000000
endloop
endfacet
facet normal 0.000000 1.000000 0.000000
outer loop
vertex 22.160000 14.540000 4.500000
vertex 25.040001 14.540000 4.500000
vertex 25.040001 14.540000 3.375000
endloop
endfacet
facet normal 0.000000 1.000000 0.000000
outer loop
vertex 10.640000 14.540000 4.500000
vertex 13.520000 14.540000 4.500000
vertex 13.520000 14.540000 3.375000
endloop
endfacet
facet normal 0.000000 1.000000 0.000000
outer loop
vertex 4.880000 14.540000 4.500000
vertex 7.760000 14.540000 4.500000
vertex 7.760000 14.540000 3.375000
endloop
endfacet
facet normal 0.000000 1.000000 0.000000
outer loop
vertex 16.400002 14.540000 4.500000
vertex 19.280001 14.540000 4.500000
vertex 19.280001 14.540000 3.375000
endloop
endfacet
facet normal 0.000000 1.000000 0.000000
outer loop
vertex 16.400002 14.540000 2.250000
vertex 19.280001 14.540000 2.250000
vertex 19.280001 14.540000 1.125000
endloop
endfacet
facet normal 0.000000 1.000000 0.000000
outer loop
vertex 4.880000 14.540000 2.250000
vertex 7.760000 14.540000 2.250000
vertex 7.760000 14.540000 1.125000
endloop
endfacet
facet normal 0.000000 1.000000 0.000000
outer loop
vertex 10.640000 14.540000 2.250000
vertex 13.520000 14.540000 2.250000
vertex 13.520000 14.540000 1.125000
endloop
endfacet
facet normal 0.000000 1.000000 0.000000
outer loop
vertex 22.160000 14.540000 2.250000
vertex 25.040001 14.540000 2.250000
vertex 25.040001 14.540000 1.125000
endloop
endfacet
facet normal 0.000000 1.000000 0.000000
outer loop
vertex 16.400002 14.540000 3.375000
vertex 19.280001 14.540000 3.375000
vertex 19.280001 14.540000 2.250000
endloop
endfacet
facet normal 0.000000 1.000000 0.000000
outer loop
vertex 4.880000 14.540000 3.375000
vertex 7.760000 14.540000 3.375000
vertex 7.760000 14.540000 2.250000
endloop
endfacet
facet normal 0.000000 1.000000 0.000000
outer loop
vertex 10.640000 14.540000 3.375000
vertex 13.520000 14.540000 3.375000
vertex 13.520000 14.540000 2.250000
endloop
endfacet
facet normal 0.000000 1.000000 0.000000
outer loop
vertex 22.160000 14.540000 3.375000
vertex 25.040001 14.540000 3.375000
vertex 25.040001 14.540000 2.250000
endloop
endfacet
facet normal 0.000000 1.000000 0.000000
outer loop
vertex 22.160000 14.540000 1.125000
vertex 25.040001 14.540000 1.125000
vertex 25.040001 14.540000 0.000000
endloop
endfacet
facet normal 0.000000 1.000000 0.000000
outer loop
vertex 10.640000 14.540000 1.125000
vertex 13.520000 14.540000 1.125000
vertex 13.520000 14.540000 0.000000
endloop
endfacet
facet normal 0.000000 1.000000 0.000000
outer loop
vertex 4.880000 14.540000 1.125000
vertex 7.760000 14.540000 1.125000
vertex 7.760000 14.540000 0.000000
endloop
endfacet
facet normal 0.000000 1.000000 0.000000
outer loop
vertex 16.400002 14.540000 1.125000
vertex 19.280001 14.540000 1.125000
vertex 19.280001 14.540000 0.000000
endloop
endfacet
facet normal 0.000000 1.000000 0.000000
outer loop
vertex 2.000000 14.540000 1.125000
vertex 4.880000 14.540000 1.125000
vertex 4.880000 14.540000 0.000000
endloop
endfacet
facet normal 0.000000 1.000000 0.000000
outer loop
vertex 2.000000 14.540000 3.375000
vertex 4.880000 14.540000 3.375000
vertex 4.880000 14.540000 2.250000
endloop
endfacet
facet normal 0.000000 1.000000 0.000000
outer loop
vertex 2.000000 14.540000 2.250000
vertex 4.880000 14.540000 2.250000
vertex 4.880000 14.540000 1.125000
endloop
endfacet
facet normal 0.000000 1.000000 0.000000
outer loop
vertex 2.000000 14.540000 4.500000
vertex 4.880000 14.540000 4.500000
vertex 4.880000 14.540000 3.375000
endloop
endfacet
facet normal 0.000000 1.000000 0.000000
outer loop
vertex 7.760000 14.540000 1.125000
vertex 10.640000 14.540000 1.125000
vertex 10.640000 14.540000 0.000000
endloop
endfacet
facet normal 0.000000 1.000000 0.000000
outer loop
vertex 7.760000 14.540000 3.375000
vertex 10.640000 14.540000 3.375000
vertex 10.640000 14.540000 2.250000
endloop
endfacet
facet normal 0.000000 1.000000 0.000000
outer loop
vertex 7.760000 14.540000 2.250000
vertex 10.640000 14.540000 2.250000
vertex 10.640000 14.540000 1.125000
endloop
endfacet
facet normal 0.000000 1.000000 0.000000
outer loop
vertex 7.760000 14.540000 4.500000
vertex 10.640000 14.540000 4.500000
vertex 10.640000 14.540000 3.375000
endloop
endfacet
facet normal 0.000000 1.000000 0.000000
outer loop
vertex 13.520000 14.540000 1.125000
vertex 16.400002 14.540000 1.125000
vertex 16.400002 14.540000 0.000000
endloop
endfacet
facet normal 0.000000 1.000000 0.000000
outer loop
vertex 13.520000 14.540000 3.375000
vertex 16.400002 14.540000 3.375000
vertex 16.400002 14.540000 2.250000
endloop
endfacet
facet normal 0.000000 1.000000 0.000000
outer loop
vertex 13.520000 14.540000 2.250000
vertex 16.400002 14.540000 2.250000
vertex 16.400002 14.540000 1.125000
endloop
endfacet
facet normal 0.000000 1.000000 0.000000
outer loop
vertex 13.520000 14.540000 4.500000
vertex 16.400002 14.540000 4.500000
vertex 16.400002 14.540000 3.375000
endloop
endfacet
facet normal 0.000000 1.000000 0.000000
outer loop
vertex 19.280001 14.540000 1.125000
vertex 22.160000 14.540000 1.125000
vertex 22.160000 14.540000 0.000000
endloop
endfacet
facet normal 0.000000 1.000000 0.000000
outer loop
vertex 19.280001 14.540000 3.375000
vertex 22.160000 14.540000 3.375000
vertex 22.160000 14.540000 2.250000
endloop
endfacet
facet normal 0.000000 1.000000 0.000000
outer loop
vertex 19.280001 14.540000 2.250000
vertex 22.160000 14.540000 2.250000
vertex 22.160000 14.540000 1.125000
endloop
endfacet
facet normal 0.000000 1.000000 0.000000
outer loop
vertex 19.280001 14.540000 4.500000
vertex 22.160000 14.540000 4.500000
vertex 22.160000 14.540000 3.375000
endloop
endfacet
facet normal -1.000000 0.000000 0.000000
outer loop
vertex 2.000000 11.405000 4.500000
vertex 2.000000 14.540000 4.500000
vertex 2.000000 14.540000 3.375000
endloop
endfacet
facet normal -1.000000 0.000000 0.000000
outer loop
vertex 2.000000 11.405000 2.250000
vertex 2.000000 14.540000 2.250000
vertex 2.000000 14.540000 1.125000
endloop
endfacet
facet normal -1.000000 0.000000 0.000000
outer loop
vertex 2.000000 11.405000 3.375000
vertex 2.000000 14.540000 3.375000
vertex 2.000000 14.540000 2.250000
endloop
endfacet
facet normal -1.000000 0.000000 0.000000
outer loop
vertex 2.000000 11.405000 1.125000
vertex 2.000000 14.540000 1.125000
vertex 2.000000 14.540000 0.000000
endloop
endfacet
facet normal -1.000000 0.000000 0.000000
outer loop
vertex 2.000000 5.135000 1.125000
vertex 2.000000 8.270000 1.125000
vertex 2.000000 8.270000 0.000000
endloop
endfacet
facet normal -1.000000 0.000000 0.000000
outer loop
vertex 2.000000 5.135000 3.375000
vertex 2.000000 8.270000 3.375000
vertex 2.000000 8.270000 2.250000
endloop
endfacet
facet normal -1.000000 0.000000 0.000000
outer loop
vertex 2.000000 5.135000 2.250000
vertex 2.000000 8.270000 2.250000
vertex 2.000000 8.270000 1.125000
endloop
endfacet
facet normal -1.000000 0.000000 0.000000
outer loop
vertex 2.000000 5.135000 4.500000
vertex 2.000000 8.270000 4.500000
vertex 2.000000 8.270000 3.375000
endloop
endfacet
facet normal -1.000000 0.000000 0.000000
outer loop
vertex 2.000000 2.000000 4.500000
vertex 2.000000 5.135000 4.500000
vertex 2.000000 5.135000 3.375000
endloop
endfacet
facet normal -1.000000 0.000000 0.000000
outer loop
vertex 2.000000 2.000000 2.250000
vertex 2.000000 5.135000 2.250000
vertex 2.000000 5.135000 1.125000
endloop
endfacet
facet normal -1.000000 0.000000 0.000000
outer loop
vertex 2.000000 2.000000 3.375000
vertex 2.000000 5.135000 3.375000
vertex 2.000000 5.135000 2.250000
endloop
endfacet
facet normal -1.000000 0.000000 0.000000
outer loop
vertex 2.000000 2.000000 1.125000
vertex 2.000000 5.135000 1.125000
vertex 2.000000 5.135000 0.000000
endloop
endfacet
facet normal -1.000000 0.000000 0.000000
outer loop
vertex 2.000000 8.270000 1.125000
vertex 2.000000 11.405000 1.125000
vertex 2.000000 11.405000 0.000000
endloop
endfacet
facet normal -1.000000 0.000000 0.000000
outer loop
vertex 2.000000 8.270000 3.375000
vertex 2.000000 11.405000 3.375000
vertex 2.000000 11.405000 2.250000
endloop
endfacet
facet normal -1.000000 0.000000 0.000000
outer loop
vertex 2.000000 8.270000 2.250000
vertex 2.000000 11.405000 2.250000
vertex 2.000000 11.405000 1.125000
endloop
endfacet
facet normal -1.000000 0.000000 0.000000
outer loop
vertex 2.000000 8.270000 4.500000
vertex 2.000000 11.405000 4.500000
vertex 2.000000 11.405000 3.375000
endloop
endfacet
facet normal 0.000000 -1.000000 0.000000
outer loop
vertex 4.880000 2.000000 4.500000
vertex 2.000000 2.000000 4.500000
vertex 2.000000 2.000000 3.375000
endloop
endfacet
facet normal 0.000000 -1.000000 0.000000
outer loop
vertex 16.400002 2.000000 4.500000
vertex 13.520000 2.000000 4.500000
vertex 13.520000 2.000000 3.375000
endloop
endfacet
facet normal 0.000000 -1.000000 0.000000
outer loop
vertex 10.640000 2.000000 4.500000
vertex 7.760000 2.000000 4.500000
vertex 7.760000 2.000000 3.375000
endloop
endfacet
facet normal 0.000000 -1.000000 0.000000
outer loop
vertex 22.160000 2.000000 4.500000
vertex 19.280001 2.000000 4.500000
vertex 19.280001 2.000000 3.375000
endloop
endfacet
facet normal 0.000000 -1.000000 0.000000
outer loop
vertex 22.160000 2.000000 2.250000
vertex 19.280001 2.000000 2.250000
vertex 19.280001 2.000000 1.125000
endloop
endfacet
facet normal 0.000000 -1.000000 0.000000
outer loop
vertex 10.640000 2.000000 2.250000
vertex 7.760000 2.000000 2.250000
vertex 7.760000 2.000000 1.125000
endloop
endfacet
facet normal 0.000000 -1.000000 0.000000
outer loop
vertex 16.400002 2.000000 2.250000
vertex 13.520000 2.000000 2.250000
vertex 13.520000 2.000000 1.125000
endloop
endfacet
facet normal 0.000000 -1.000000 0.000000
outer loop
vertex 4.880000 2.000000 2.250000
vertex 2.000000 2.000000 2.250000
vertex 2.000000 2.000000 1.125000
endloop
endfacet
facet normal 0.000000 -1.000000 0.000000
outer loop
vertex 22.160000 2.000000 3.375000
vertex 19.280001 2.000000 3.375000
vertex 19.280001 2.000000 2.250000
endloop
endfacet
facet normal 0.000000 -1.000000 0.000000
outer loop
vertex 10.640000 2.000000 3.375000
vertex 7.760000 2.000000 3.375000
vertex 7.760000 2.000000 2.250000
endloop
endfacet
facet normal 0.000000 -1.000000 0.000000
outer loop
vertex 16.400002 2.000000 3.375000
vertex 13.520000 2.000000 3.375000
vertex 13.520000 2.000000 2.250000
endloop
endfacet
facet normal 0.000000 -1.000000 0.000000
outer loop
vertex 4.880000 2.000000 3.375000
vertex 2.000000 2.000000 3.375000
vertex 2.000000 2.000000 2.250000
endloop
endfacet
facet normal 0.000000 -1.000000 0.000000
outer loop
vertex 4.880000 2.000000 1.125000
vertex 2.000000 2.000000 1.125000
vertex 2.000000 2.000000 0.000000
endloop
endfacet
facet normal 0.000000 -1.000000 0.000000
outer loop
vertex 16.400002 2.000000 1.125000
vertex 13.520000 2.000000 1.125000
vertex 13.520000 2.000000 0.000000
endloop
endfacet
facet normal 0.000000 -1.000000 0.000000
outer loop
vertex 10.640000 2.000000 1.125000
vertex 7.760000 2.000000 1.125000
vertex 7.760000 2.000000 0.000000
endloop
endfacet
facet normal 0.000000 -1.000000 0.000000
outer loop
vertex 22.160000 2.000000 1.125000
vertex 19.280001 2.000000 1.125000
vertex 19.280001 2.000000 0.000000
endloop
endfacet
facet normal 0.000000 -1.000000 0.000000
outer loop
vertex 7.760000 2.000000 1.125000
vertex 4.880000 2.000000 1.125000
vertex 4.880000 2.000000 0.000000
endloop
endfacet
facet normal 0.000000 -1.000000 0.000000
outer loop
vertex 7.760000 2.000000 3.375000
vertex 4.880000 2.000000 3.375000
vertex 4.880000 2.000000 2.250000
endloop
endfacet
facet normal 0.000000 -1.000000 0.000000
outer loop
vertex 7.760000 2.000000 2.250000
vertex 4.880000 2.000000 2.250000
vertex 4.880000 2.000000 1.125000
endloop
endfacet
facet normal 0.000000 -1.000000 0.000000
outer loop
vertex 7.760000 2.000000 4.500000
vertex 4.880000 2.000000 4.500000
vertex 4.880000 2.000000 3.375000
endloop
endfacet
facet normal 0.000000 -1.000000 0.000000
outer loop
vertex 13.520000 2.000000 1.125000
vertex 10.640000 2.000000 1.125000
vertex 10.640000 2.000000 0.000000
endloop
endfacet
facet normal 0.000000 -1.000000 0.000000
outer loop
vertex 13.520000 2.000000 3.375000
vertex 10.640000 2.000000 3.375000
vertex 10.640000 2.000000 2.250000
endloop
endfacet
facet normal 0.000000 -1.000000 0.000000
outer loop
vertex 13.520000 2.000000 2.250000
vertex 10.640000 2.000000 2.250000
vertex 10.640000 2.000000 1.125000
endloop
endfacet
facet normal 0.000000 -1.000000 0.000000
outer loop
vertex 13.520000 2.000000 4.500000
vertex 10.640000 2.000000 4.500000
vertex 10.640000 2.000000 3.375000
endloop
endfacet
facet normal 0.000000 -1.000000 0.000000
outer loop
vertex 19.280001 2.000000 1.125000
vertex 16.400002 2.000000 1.125000
vertex 16.400002 2.000000 0.000000
endloop
endfacet
facet normal 0.000000 -1.000000 0.000000
outer loop
vertex 19.280001 2.000000 3.375000
vertex 16.400002 2.000000 3.375000
vertex 16.400002 2.000000 2.250000
endloop
endfacet
facet normal 0.000000 -1.000000 0.000000
outer loop
vertex 19.280001 2.000000 2.250000
vertex 16.400002 2.000000 2.250000
vertex 16.400002 2.000000 1.125000
endloop
endfacet
facet normal 0.000000 -1.000000 0.000000
outer loop
vertex 19.280001 2.000000 4.500000
vertex 16.400002 2.000000 4.500000
vertex 16.400002 2.000000 3.375000
endloop
endfacet
facet normal 0.000000 -1.000000 0.000000
outer loop
vertex 25.040001 2.000000 1.125000
vertex 22.160000 2.000000 1.125000
vertex 22.160000 2.000000 0.000000
endloop
endfacet
facet normal 0.000000 -1.000000 0.000000
outer loop
vertex 25.040001 2.000000 3.375000
vertex 22.160000 2.000000 3.375000
vertex 22.160000 2.000000 2.250000
endloop
endfacet
facet normal 0.000000 -1.000000 0.000000
outer loop
vertex 25.040001 2.000000 2.250000
vertex 22.160000 2.000000 2.250000
vertex 22.160000 2.000000 1.125000
endloop
endfacet
facet normal 0.000000 -1.000000 0.000000
outer loop
vertex 25.040001 2.000000 4.500000
vertex 22.160000 2.000000 4.500000
vertex 22.160000 2.000000 3.375000
endloop
endfacet
endsolid Exported from Blender-2.93.0
